<svg viewBox="0 0 20 20" fill="none" xmlns="http://www.w3.org/2000/svg">
<path d="M10 5.9375C9.05076 5.9375 8.28125 5.16799 8.28125 4.21875C8.28125 3.26951 9.05076 2.5 10 2.5C10.9492 2.5 11.7188 3.26951 11.7188 4.21875C11.7188 5.16799 10.9492 5.9375 10 5.9375Z" fill="currentColor"></path>
<path d="M10 17.5C9.05076 17.5 8.28125 16.7305 8.28125 15.7812C8.28125 14.832 9.05076 14.0625 10 14.0625C10.9492 14.0625 11.7188 14.832 11.7188 15.7812C11.7188 16.7305 10.9492 17.5 10 17.5Z" fill="currentColor"></path>
<path d="M8.28125 10C8.28125 10.9492 9.05076 11.7187 10 11.7187C10.9492 11.7187 11.7188 10.9492 11.7188 10C11.7188 9.05076 10.9492 8.28125 10 8.28125C9.05076 8.28125 8.28125 9.05076 8.28125 10Z" fill="currentColor"></path>
</svg>