<svg viewBox="0 0 14 14" fill="none" xmlns="http://www.w3.org/2000/svg">
<path fill-rule="evenodd" clip-rule="evenodd" d="M7 0C10.866 0 14 3.13401 14 7C14 10.866 10.866 14 7 14C3.13401 14 0 10.866 0 7C0 3.13401 3.13401 0 7 0ZM7 1.5C3.96243 1.5 1.5 3.96243 1.5 7C1.5 10.0376 3.96243 12.5 7 12.5C10.0376 12.5 12.5 10.0376 12.5 7C12.5 3.96243 10.0376 1.5 7 1.5ZM7.62883 3.79193H4.95833V10.3542H6.55871V8.70801H7.61921C7.98766 8.71344 8.35333 8.64462 8.69371 8.50579C8.99897 8.38089 9.27589 8.19748 9.50833 7.96626C9.73165 7.73994 9.90712 7.47233 10.0246 7.17889C10.2694 6.57082 10.2694 5.89385 10.0246 5.28577C9.90607 4.99566 9.72896 4.7322 9.50396 4.51131C9.27053 4.28469 8.99362 4.10597 8.68933 3.98554C8.35231 3.85275 7.99187 3.78695 7.62883 3.79193ZM6.55871 5.21349L7.54571 5.21435C7.82311 5.20605 8.09219 5.30812 8.29208 5.49746C8.49291 5.69256 8.60091 5.96182 8.58958 6.23922C8.60154 6.51545 8.49335 6.78363 8.29208 6.97667C8.0909 7.16353 7.8223 7.26386 7.54571 7.25548H6.55871V5.21349Z" fill="currentColor"></path>
</svg>