<svg viewBox="0 0 64 64" fill="none" xmlns="http://www.w3.org/2000/svg">
<path fill-rule="evenodd" clip-rule="evenodd" d="M41 28.5C41 35.4036 35.4036 41 28.5 41C21.5964 41 16 35.4036 16 28.5C16 21.5964 21.5964 16 28.5 16C35.4036 16 41 21.5964 41 28.5ZM39.4286 43.4286C36.3665 45.674 32.5881 47 28.5 47C18.2827 47 10 38.7173 10 28.5C10 18.2827 18.2827 10 28.5 10C38.7173 10 47 18.2827 47 28.5C47 32.4634 45.7537 36.1356 43.6316 39.1463L55.2635 50.7782L51.0208 55.0208L39.4286 43.4286Z" fill="currentColor"></path>
</svg>