<svg viewBox="0 0 64 64" fill="none" xmlns="http://www.w3.org/2000/svg">
  <path fill-rule="evenodd" clip-rule="evenodd" d="M26.1666 7H37.8333L38.7318 13.1612C41.0247 13.9806 43.1242 15.2068 44.9435 16.7527L50.7339 14.4481L56.5672 24.5517L51.679 28.4119C51.8898 29.5759 51.9999 30.7751 51.9999 32C51.9999 33.2249 51.8898 34.4241 51.679 35.5881L56.5672 39.4483L50.7339 49.5519L44.9435 47.2473C43.1242 48.7932 41.0247 50.0194 38.7318 50.8388L37.8333 57H26.1666L25.2681 50.8388C22.9752 50.0194 20.8756 48.7932 19.0562 47.2472L13.266 49.5517L7.43262 39.4481L12.3209 35.588C12.11 34.4239 11.9999 33.2248 11.9999 32C11.9999 30.7752 12.11 29.5761 12.3209 28.412L7.43262 24.5519L13.2659 14.4483L19.0562 16.7528C20.8756 15.2068 22.9752 13.9806 25.2681 13.1612L26.1666 7ZM31.9999 44C38.6274 44 43.9999 38.6274 43.9999 32C43.9999 25.3726 38.6274 20 31.9999 20C25.3725 20 19.9999 25.3726 19.9999 32C19.9999 38.6274 25.3725 44 31.9999 44Z" fill="currentColor"></path>
</svg>